<?xml version="1.0" encoding="utf-8"?>
<!-- Generator: Adobe Illustrator 24.0.0, SVG Export Plug-In . SVG Version: 6.00 Build 0)  -->
<svg version="1.1" id="Capa_1" xmlns="http://www.w3.org/2000/svg" xmlns:xlink="http://www.w3.org/1999/xlink" x="0px" y="0px"
	 viewBox="0 0 854.13 279.65" style="enable-background:new 0 0 854.13 279.65;" xml:space="preserve">
<style type="text/css">
	.st0{fill:#DC0835;}
</style>
<g>
	<path class="st0" d="M205.66,174.21c24.95,0,45.19,16.52,45.19,36.86c0,20.37-20.24,36.86-45.19,36.86c-19.1,0-35.39-9.68-42-23.33
		c-2.76,12.51-9.25,23.86-18.44,33.18c14.41,12.84,34.73,20.87,57.22,20.87c43.75,0,79.23-30.24,79.23-67.58
		c0-37.31-35.46-67.58-79.23-67.58c-22.49,0-42.81,8.03-57.22,20.87c9.2,9.32,15.68,20.7,18.44,33.18
		C170.25,183.89,186.56,174.21,205.66,174.21"/>
	<path class="st0" d="M78.02,247.92c-24.95,0-45.19-16.52-45.19-36.86c0-20.37,20.24-36.86,45.19-36.86c19.1,0,35.39,9.68,42,23.33
		c2.76-12.49,9.25-23.86,18.44-33.18c-14.41-12.84-34.73-20.87-57.22-20.87C37.49,143.49,2,173.76,2,211.07s35.46,67.58,79.23,67.58
		c22.49,0,42.81-8,57.22-20.87c-9.2-9.32-15.68-20.67-18.44-33.18C113.4,238.25,97.12,247.92,78.02,247.92"/>
	<path class="st0" d="M205.66,29.73c24.95,0,45.19,16.52,45.19,36.86c0,20.37-20.24,36.86-45.19,36.86c-19.1,0-35.39-9.68-42-23.33
		c-2.76,12.51-9.25,23.86-18.44,33.18c14.41,12.84,34.73,20.87,57.22,20.87c43.75,0,79.23-30.24,79.23-67.58
		C281.68,29.27,246.21-1,202.44-1c-22.49,0-42.81,8.03-57.22,20.87c9.2,9.32,15.68,20.7,18.44,33.18
		C170.25,39.4,186.56,29.73,205.66,29.73"/>
	<path class="st0" d="M78.02,103.44c-24.95,0-45.19-16.52-45.19-36.86c0-20.37,20.24-36.86,45.19-36.86c19.1,0,35.39,9.68,42,23.33
		c2.76-12.49,9.25-23.86,18.44-33.18C124.04,7.03,103.73-1,81.23-1C37.49-1,2,29.27,2,66.58s35.46,67.58,79.23,67.58
		c22.49,0,42.81-8,57.22-20.87c-9.2-9.32-15.68-20.67-18.44-33.18C113.4,93.76,97.12,103.44,78.02,103.44"/>
	<path d="M361.49,93.31c-4.58,0-8.92-0.84-12.97-2.48c-4.05-1.67-7.52-3.93-10.39-6.79c-2.89-2.86-5.17-6.28-6.84-10.26
		c-1.67-3.98-2.51-8.26-2.51-12.79c0-6.03,1.42-11.53,4.26-16.44c2.84-4.94,6.76-8.79,11.75-11.6c5.02-2.81,10.56-4.2,16.69-4.2
		c5.75,0,11.02,1.24,15.81,3.75c4.79,2.51,8.66,5.93,11.6,10.28l-9.22,5.7c-1.98-2.89-4.53-5.17-7.73-6.81
		c-3.19-1.67-6.66-2.48-10.46-2.48c-6.18,0-11.35,2.08-15.48,6.26c-4.13,4.15-6.21,9.37-6.21,15.6s2.08,11.45,6.23,15.63
		s9.3,6.28,15.45,6.28c3.8,0,7.3-0.84,10.46-2.48c3.19-1.67,5.75-3.93,7.73-6.81l9.22,5.7c-2.94,4.36-6.81,7.78-11.6,10.28
		C372.51,92.06,367.24,93.31,361.49,93.31"/>
	<path d="M436.19,28.18l-11.4,12.49H414.1l9.22-12.49H436.19z M418.66,83.5c4.05,0,7.45-1.37,10.13-4.13
		c2.69-2.76,4.03-6.16,4.03-10.23s-1.34-7.52-4.03-10.26c-2.69-2.76-6.08-4.13-10.13-4.13c-4.1,0-7.5,1.37-10.23,4.13
		c-2.74,2.76-4.08,6.18-4.08,10.26c0,4.05,1.37,7.47,4.08,10.23C411.17,82.14,414.56,83.5,418.66,83.5 M432.82,46.12h10.16v46.1
		h-10.16v-6.61c-4.05,5.14-9.45,7.73-16.16,7.73c-4.28,0-8.13-1.06-11.6-3.17c-3.47-2.1-6.18-4.99-8.16-8.69
		c-1.95-3.67-2.94-7.78-2.94-12.31s0.99-8.64,2.94-12.31s4.66-6.56,8.16-8.69c3.47-2.1,7.35-3.17,11.6-3.17
		c6.74,0,12.13,2.56,16.16,7.68V46.12z"/>
	<path d="M508.18,45c5.24,0,9.42,1.57,12.56,4.74c3.14,3.14,4.71,7.32,4.71,12.54v29.94H515.3V65.29c0-3.19-0.94-5.72-2.79-7.65
		c-1.85-1.93-4.33-2.86-7.42-2.86c-3.27,0-5.9,0.99-7.93,2.96c-2.03,1.98-3.01,4.53-3.01,7.73v26.75h-10.11V65.29
		c0-3.19-0.94-5.72-2.81-7.65c-1.87-1.93-4.36-2.86-7.45-2.86c-3.24,0-5.88,0.99-7.88,2.94c-2.03,1.95-3.01,4.53-3.01,7.75v26.75
		h-10.16v-46.1h10.16v5.4c3.5-4.33,8.26-6.48,14.26-6.48c3.34,0,6.31,0.71,8.87,2.15c2.56,1.42,4.56,3.42,5.95,5.98
		C495.72,47.71,501.12,45,508.18,45"/>
	<path d="M556.59,83.5c4.05,0,7.45-1.37,10.13-4.13c2.69-2.76,4.03-6.16,4.03-10.23s-1.34-7.52-4.03-10.26
		c-2.69-2.76-6.08-4.13-10.13-4.13c-4.1,0-7.5,1.37-10.23,4.13c-2.74,2.76-4.08,6.18-4.08,10.26c0,4.05,1.37,7.47,4.08,10.23
		C549.09,82.14,552.49,83.5,556.59,83.5 M570.75,46.12h10.16v46.1h-10.16v-6.61c-4.05,5.14-9.45,7.73-16.16,7.73
		c-4.26,0-8.13-1.06-11.6-3.17s-6.18-4.99-8.16-8.69c-1.95-3.67-2.94-7.78-2.94-12.31s0.99-8.64,2.94-12.31
		c1.95-3.67,4.66-6.56,8.16-8.69c3.47-2.1,7.35-3.17,11.6-3.17c6.74,0,12.13,2.56,16.16,7.68V46.12z"/>
	<path d="M615.18,45.36h1.72v10.41h-1.72c-4.48,0-7.98,1.27-10.54,3.77c-2.56,2.51-3.82,5.93-3.82,10.21v22.42h-10.16v-46.1h10.16
		v6.76C604.49,47.86,609.28,45.36,615.18,45.36"/>
	<path d="M643.25,83.5c4.05,0,7.45-1.37,10.13-4.13c2.69-2.76,4.03-6.16,4.03-10.23s-1.34-7.52-4.03-10.26
		c-2.69-2.76-6.08-4.13-10.13-4.13c-4.1,0-7.5,1.37-10.23,4.13c-2.71,2.76-4.08,6.18-4.08,10.26c0,4.05,1.37,7.47,4.08,10.23
		C635.75,82.14,639.14,83.5,643.25,83.5 M657.41,46.12h10.16v46.1h-10.16v-6.61c-4.05,5.14-9.45,7.73-16.16,7.73
		c-4.26,0-8.13-1.06-11.6-3.17c-3.47-2.1-6.18-4.99-8.16-8.69c-1.95-3.67-2.94-7.78-2.94-12.31s0.99-8.64,2.94-12.31
		s4.66-6.56,8.16-8.69c3.47-2.1,7.35-3.17,11.6-3.17c6.74,0,12.13,2.56,16.16,7.68V46.12z"/>
	<path d="M353.29,167.75c4.05,0,7.45-1.37,10.13-4.13c2.69-2.76,4.03-6.16,4.03-10.23c0-4.08-1.34-7.52-4.03-10.26
		c-2.69-2.76-6.08-4.13-10.13-4.13c-4.1,0-7.5,1.37-10.21,4.13c-2.74,2.76-4.08,6.18-4.08,10.26c0,4.05,1.37,7.47,4.08,10.23
		S349.21,167.75,353.29,167.75 M367.47,111.34h10.16v65.13h-10.16v-6.61c-4.05,5.14-9.45,7.73-16.16,7.73
		c-4.26,0-8.13-1.06-11.6-3.17c-3.47-2.1-6.18-4.99-8.16-8.69c-1.95-3.67-2.94-7.78-2.94-12.31s0.99-8.64,2.94-12.31
		s4.66-6.56,8.16-8.69c3.47-2.1,7.35-3.17,11.6-3.17c6.74,0,12.13,2.56,16.16,7.68V111.34z"/>
	<path d="M408.38,138.39c-3.27,0-6.1,0.99-8.54,2.96c-2.43,1.98-4.05,4.58-4.89,7.83h26.88c-0.76-3.24-2.38-5.85-4.84-7.83
		C414.54,139.38,411.67,138.39,408.38,138.39 M432.65,153.49c0,1.34-0.08,2.69-0.25,3.98h-37.36c0.84,3.32,2.56,5.98,5.24,7.98
		c2.66,1.98,5.88,2.99,9.6,2.99c2.89,0,5.57-0.61,8.06-1.8c2.48-1.22,4.43-2.71,5.8-4.56l6.84,5.88c-2.38,2.99-5.42,5.34-9.07,7.07
		c-3.67,1.7-7.62,2.56-11.91,2.56c-7.3,0-13.37-2.33-18.21-6.97c-4.84-4.66-7.27-10.44-7.27-17.35c0-4.48,1.06-8.54,3.19-12.21
		c2.13-3.67,5.04-6.54,8.76-8.64c3.72-2.08,7.85-3.14,12.39-3.14c6.92,0,12.67,2.31,17.28,6.92
		C430.34,140.78,432.65,146.55,432.65,153.49"/>
	<path d="M491.29,177.56c-4.58,0-8.92-0.84-12.97-2.48c-4.05-1.67-7.52-3.93-10.39-6.79c-2.89-2.86-5.17-6.28-6.84-10.26
		c-1.67-3.98-2.51-8.26-2.51-12.79c0-6.03,1.42-11.53,4.26-16.44c2.84-4.94,6.76-8.79,11.75-11.6c5.02-2.81,10.56-4.2,16.69-4.2
		c5.75,0,11.02,1.24,15.81,3.75c4.79,2.51,8.66,5.93,11.6,10.28l-9.22,5.7c-1.98-2.89-4.56-5.17-7.73-6.81
		c-3.19-1.67-6.66-2.48-10.46-2.48c-6.18,0-11.35,2.08-15.48,6.26c-4.13,4.15-6.21,9.37-6.21,15.6c0,6.23,2.08,11.45,6.23,15.63
		s9.3,6.28,15.45,6.28c3.8,0,7.3-0.84,10.46-2.48c3.19-1.67,5.75-3.93,7.73-6.81l9.22,5.7c-2.94,4.36-6.81,7.78-11.6,10.28
		C502.31,176.31,497.04,177.56,491.29,177.56"/>
	<path d="M536.27,163.62c2.74,2.76,6.13,4.13,10.21,4.13c4.05,0,7.45-1.37,10.13-4.13c2.68-2.76,4.03-6.16,4.03-10.23
		c0-4.08-1.34-7.52-4.03-10.26c-2.69-2.76-6.08-4.13-10.13-4.13c-4.05,0-7.47,1.39-10.21,4.15s-4.1,6.18-4.1,10.23
		S533.54,160.89,536.27,163.62 M546.48,177.56c-7.04,0-12.92-2.31-17.6-6.94c-4.71-4.61-7.07-10.36-7.07-17.22
		c0-6.86,2.36-12.59,7.07-17.22c4.71-4.61,10.59-6.94,17.6-6.94c4.58,0,8.79,1.06,12.56,3.17s6.74,5.02,8.89,8.69
		c2.15,3.7,3.22,7.8,3.22,12.29c0,4.51-1.06,8.61-3.22,12.29c-2.15,3.7-5.12,6.59-8.89,8.69
		C555.25,176.52,551.07,177.56,546.48,177.56"/>
	<path d="M632.99,129.25c5.24,0,9.42,1.57,12.56,4.74c3.14,3.14,4.71,7.32,4.71,12.54v29.94H640.1v-26.95
		c0-3.19-0.94-5.72-2.79-7.65c-1.85-1.93-4.33-2.86-7.42-2.86c-3.27,0-5.9,0.99-7.93,2.96c-2.03,1.98-3.01,4.53-3.01,7.73v26.75
		h-10.11v-26.93c0-3.19-0.94-5.72-2.81-7.65c-1.87-1.93-4.36-2.86-7.45-2.86c-3.24,0-5.88,0.99-7.88,2.94
		c-2.03,1.95-3.01,4.53-3.01,7.75v26.75h-10.16v-46.1h10.16v5.4c3.5-4.33,8.26-6.48,14.26-6.48c3.34,0,6.31,0.71,8.87,2.15
		c2.56,1.42,4.56,3.42,5.95,5.98C620.52,131.96,625.95,129.25,632.99,129.25"/>
	<path d="M680.89,138.39c-3.27,0-6.1,0.99-8.54,2.96c-2.43,1.98-4.05,4.58-4.89,7.83h26.9c-0.76-3.24-2.38-5.85-4.84-7.83
		C687.04,139.38,684.18,138.39,680.89,138.39 M705.15,153.49c0,1.34-0.08,2.69-0.25,3.98h-37.36c0.84,3.32,2.56,5.98,5.24,7.98
		c2.66,1.98,5.88,2.99,9.6,2.99c2.89,0,5.57-0.61,8.06-1.8c2.48-1.22,4.43-2.71,5.8-4.56l6.84,5.88c-2.38,2.99-5.42,5.34-9.07,7.07
		c-3.67,1.7-7.62,2.56-11.91,2.56c-7.3,0-13.37-2.33-18.21-6.97c-4.84-4.66-7.27-10.44-7.27-17.35c0-4.48,1.06-8.54,3.19-12.21
		c2.13-3.67,5.04-6.54,8.76-8.64c3.72-2.08,7.85-3.14,12.39-3.14c6.92,0,12.69,2.31,17.28,6.92
		C702.85,140.78,705.15,146.55,705.15,153.49"/>
	<path d="M736.41,129.6h1.72v10.41h-1.72c-4.48,0-7.98,1.27-10.54,3.77s-3.82,5.93-3.82,10.21v22.42h-10.16v-46.1h10.16v6.76
		C725.75,132.11,730.54,129.6,736.41,129.6"/>
	<path d="M764.25,177.56c-7.04,0-12.92-2.31-17.6-6.94c-4.71-4.61-7.07-10.36-7.07-17.22c0-6.86,2.36-12.59,7.07-17.22
		c4.71-4.61,10.59-6.94,17.6-6.94c4.56,0,8.69,1.04,12.41,3.09c3.7,2.05,6.61,4.86,8.74,8.38l-8.79,5.34
		c-1.24-2.18-2.94-3.9-5.12-5.17c-2.18-1.27-4.58-1.9-7.24-1.9c-4.05,0-7.47,1.39-10.21,4.15c-2.74,2.76-4.1,6.18-4.1,10.23
		s1.37,7.47,4.1,10.23c2.74,2.76,6.13,4.13,10.21,4.13c2.69,0,5.09-0.63,7.27-1.9c2.15-1.27,3.88-2.96,5.09-5.12l8.79,5.29
		c-2.13,3.52-5.04,6.33-8.76,8.41C772.91,176.52,768.78,177.56,764.25,177.56"/>
	<path d="M790.85,130.36h10.16v46.1h-10.16V130.36z M795.94,122.54c-1.82,0-3.34-0.61-4.58-1.85c-1.24-1.24-1.85-2.76-1.85-4.56
		c0-1.85,0.61-3.39,1.85-4.58c1.24-1.22,2.76-1.8,4.58-1.8c1.85,0,3.39,0.61,4.64,1.8c1.24,1.22,1.85,2.74,1.85,4.58
		c0,1.82-0.61,3.34-1.85,4.56C799.33,121.93,797.79,122.54,795.94,122.54"/>
	<path d="M821.24,163.62c2.74,2.76,6.13,4.13,10.21,4.13c4.05,0,7.45-1.37,10.13-4.13s4.03-6.16,4.03-10.23
		c0-4.08-1.34-7.52-4.03-10.26c-2.69-2.76-6.08-4.13-10.13-4.13s-7.47,1.39-10.21,4.15c-2.74,2.76-4.1,6.18-4.1,10.23
		S818.51,160.89,821.24,163.62 M831.45,177.56c-7.04,0-12.92-2.31-17.63-6.94c-4.71-4.64-7.07-10.36-7.07-17.22
		c0-6.86,2.36-12.59,7.07-17.22c4.71-4.61,10.59-6.94,17.63-6.94c4.58,0,8.79,1.06,12.56,3.17s6.74,5.02,8.89,8.69
		c2.15,3.7,3.22,7.8,3.22,12.29c0,4.51-1.06,8.61-3.22,12.29c-2.15,3.7-5.12,6.59-8.89,8.69
		C840.22,176.52,836.04,177.56,831.45,177.56"/>
	<path d="M353.29,252c4.05,0,7.45-1.37,10.13-4.13c2.69-2.76,4.03-6.16,4.03-10.23c0-4.08-1.34-7.52-4.03-10.26
		c-2.69-2.76-6.08-4.13-10.13-4.13c-4.1,0-7.5,1.37-10.21,4.13c-2.74,2.76-4.08,6.18-4.08,10.26c0,4.05,1.37,7.47,4.08,10.23
		S349.21,252,353.29,252 M367.47,195.57h10.16v65.13h-10.16v-6.61c-4.05,5.14-9.45,7.73-16.16,7.73c-4.26,0-8.13-1.06-11.6-3.17
		c-3.47-2.1-6.18-4.99-8.16-8.69c-1.95-3.67-2.94-7.78-2.94-12.31c0-4.53,0.99-8.64,2.94-12.31s4.66-6.56,8.16-8.69
		c3.47-2.1,7.35-3.17,11.6-3.17c6.74,0,12.13,2.56,16.16,7.68V195.57z"/>
	<path d="M408.38,222.64c-3.27,0-6.1,0.99-8.54,2.96c-2.43,1.98-4.05,4.58-4.89,7.83h26.88c-0.76-3.24-2.38-5.85-4.84-7.83
		C414.54,223.63,411.67,222.64,408.38,222.64 M432.65,237.74c0,1.34-0.08,2.69-0.25,3.98h-37.36c0.84,3.32,2.56,5.98,5.24,7.98
		c2.66,1.98,5.88,2.99,9.6,2.99c2.89,0,5.57-0.61,8.06-1.8c2.48-1.22,4.43-2.74,5.8-4.56l6.84,5.88c-2.38,3.01-5.42,5.34-9.07,7.07
		c-3.67,1.7-7.62,2.56-11.91,2.56c-7.3,0-13.37-2.33-18.21-6.97c-4.84-4.66-7.27-10.44-7.27-17.35c0-4.48,1.06-8.54,3.19-12.21
		c2.13-3.67,5.04-6.54,8.76-8.64c3.72-2.08,7.85-3.14,12.39-3.14c6.92,0,12.67,2.31,17.28,6.92
		C430.34,225.03,432.65,230.8,432.65,237.74"/>
	<path d="M489.67,251.04c2.53,0,4.64-0.86,6.33-2.61c1.7-1.72,2.53-3.88,2.53-6.43c0-2.53-0.84-4.66-2.53-6.38
		c-1.7-1.72-3.8-2.58-6.33-2.58h-17.43v18.01H489.67z M487.49,207.98h-15.27v15.88h15.27c2.18,0,4.03-0.76,5.57-2.31
		c1.52-1.52,2.31-3.42,2.31-5.65c0-2.25-0.76-4.15-2.25-5.67C491.59,208.74,489.72,207.98,487.49,207.98 M498.89,227.58
		c3.19,1.01,5.78,3.01,7.78,6c2,3.01,3.01,6.41,3.01,10.21c0,4.89-1.65,8.92-4.96,12.11c-3.32,3.19-7.47,4.79-12.46,4.79h-30.4
		v-62.36h28.29c4.61,0,8.49,1.49,11.6,4.48c3.12,2.99,4.66,6.74,4.66,11.25c0,2.96-0.71,5.7-2.1,8.16
		C502.89,224.65,501.09,226.44,498.89,227.58"/>
	<path d="M528.3,247.87c2.74,2.76,6.13,4.13,10.21,4.13s7.45-1.37,10.13-4.13c2.69-2.76,4.03-6.16,4.03-10.23
		c0-4.08-1.34-7.52-4.03-10.26c-2.68-2.76-6.08-4.13-10.13-4.13s-7.47,1.39-10.21,4.15s-4.1,6.18-4.1,10.23
		C524.19,241.72,525.56,245.11,528.3,247.87 M538.5,261.81c-7.04,0-12.92-2.31-17.6-6.94c-4.71-4.61-7.07-10.36-7.07-17.22
		c0-6.86,2.36-12.59,7.07-17.22c4.71-4.61,10.59-6.94,17.6-6.94c4.58,0,8.79,1.06,12.56,3.17s6.74,5.02,8.89,8.69
		c2.15,3.7,3.22,7.8,3.22,12.29c0,4.51-1.06,8.61-3.22,12.29c-2.15,3.7-5.12,6.59-8.89,8.69
		C547.29,260.74,543.09,261.81,538.5,261.81"/>
	<path d="M589.14,223.08c-3.14,0-5.78,1.01-7.88,3.01c-2.1,2.03-3.17,4.53-3.17,7.57c0,3.01,1.06,5.52,3.17,7.52
		c2.1,2.03,4.74,3.01,7.88,3.01c3.12,0,5.72-1.01,7.83-3.04c2.1-2.03,3.14-4.53,3.14-7.5c0-3.04-1.04-5.55-3.14-7.57
		C594.86,224.09,592.26,223.08,589.14,223.08 M599.37,261.15c4.48,0,8.21,1.17,11.17,3.52c2.96,2.33,4.79,5.55,5.47,9.6l-10.51,2.84
		c-0.13-1.85-0.91-3.34-2.38-4.43c-1.47-1.11-3.34-1.65-5.65-1.65h-15.86c-4.08,0-7.4-1.09-9.93-3.24c-2.53-2.15-3.8-4.99-3.8-8.49
		c0-2.31,0.53-4.46,1.62-6.46c1.09-2.03,2.56-3.57,4.41-4.66c-4.15-3.85-6.23-8.66-6.23-14.44c0-5.75,2.05-10.54,6.13-14.39
		c4.08-3.85,9.2-5.78,15.27-5.78c3.77,0,7.27,0.81,10.51,2.43c0.58-2.48,1.9-4.41,3.9-5.83c2.03-1.42,4.48-2.13,7.4-2.13h3.7v9.4
		h-3.19c-1.42,0-2.61,0.35-3.55,1.09c-0.96,0.73-1.49,1.7-1.62,2.89c2.86,3.57,4.28,7.68,4.28,12.31c0,5.7-2.05,10.49-6.18,14.34
		c-4.13,3.85-9.22,5.78-15.27,5.78c-3.14,0-6-0.51-8.56-1.49c-1.65,1.09-2.48,2.56-2.48,4.41c0,1.29,0.51,2.36,1.49,3.19
		c0.99,0.84,2.31,1.24,3.93,1.24h15.93V261.15z"/>
	<path d="M629.59,247.87c2.74,2.76,6.13,4.13,10.21,4.13s7.45-1.37,10.13-4.13c2.69-2.76,4.03-6.16,4.03-10.23
		c0-4.08-1.34-7.52-4.03-10.26c-2.69-2.76-6.08-4.13-10.13-4.13s-7.47,1.39-10.21,4.15c-2.74,2.76-4.1,6.18-4.1,10.23
		C625.49,241.72,626.86,245.11,629.59,247.87 M639.8,261.81c-7.04,0-12.92-2.31-17.6-6.94c-4.71-4.61-7.07-10.36-7.07-17.22
		c0-6.86,2.36-12.59,7.07-17.22c4.71-4.61,10.59-6.94,17.6-6.94c4.58,0,8.79,1.06,12.56,3.17c3.77,2.1,6.74,5.02,8.89,8.69
		c2.15,3.7,3.22,7.8,3.22,12.29c0,4.51-1.06,8.61-3.22,12.29c-2.15,3.7-5.12,6.59-8.89,8.69
		C648.57,260.74,644.39,261.81,639.8,261.81"/>
	<path d="M697.4,223.78h-13.02v21.81c0,2.13,0.58,3.72,1.75,4.79c1.17,1.06,2.81,1.62,4.96,1.62c2.03,0,4.13-0.53,6.31-1.6v9.5
		c-2.51,1.27-5.32,1.9-8.44,1.9c-4.86,0-8.51-1.29-10.99-3.85c-2.48-2.56-3.7-6.13-3.7-10.74v-23.46h-7.83v-9.2h7.83v-11.96h10.11
		v11.96h13.02V223.78z"/>
	<path d="M739.65,196.68l-10.54,12.49h-9.9l8.54-12.49H739.65z M723.44,252c3.75,0,6.89-1.37,9.37-4.13
		c2.48-2.76,3.75-6.16,3.75-10.23c0-4.08-1.24-7.52-3.75-10.26c-2.48-2.76-5.62-4.13-9.37-4.13c-3.8,0-6.94,1.37-9.47,4.13
		c-2.51,2.76-3.77,6.18-3.77,10.26c0,4.05,1.27,7.47,3.77,10.23C716.5,250.63,719.64,252,723.44,252 M736.56,214.61h9.4v46.1h-9.4
		v-6.61c-3.75,5.14-8.74,7.73-14.97,7.73c-3.95,0-7.52-1.06-10.74-3.17c-3.22-2.1-5.72-4.99-7.55-8.66
		c-1.82-3.67-2.71-7.78-2.71-12.31s0.91-8.64,2.71-12.31c1.82-3.67,4.33-6.56,7.55-8.69c3.22-2.1,6.79-3.17,10.74-3.17
		c6.23,0,11.22,2.56,14.97,7.68V214.61z"/>
</g>
</svg>
