<svg width="40" height="35" viewBox="0 0 40 35" fill="none" xmlns="http://www.w3.org/2000/svg">
<path d="M32.5423 13.0658C32.5423 6.33719 27.0716 0.847097 20.2148 0.561279V4.7771C24.6674 5.06291 28.2001 8.65946 28.2001 13.0658C28.2001 17.4722 24.6674 21.0687 20.2148 21.3545V25.5704C27.0716 25.2845 32.5423 19.7945 32.5423 13.0658Z" fill="#BDBDBD"/>
<path d="M11.1 13.0658C11.1 8.67137 14.6204 5.06291 19.0853 4.7771V0.561279C12.2285 0.847097 6.75781 6.33719 6.75781 13.0658C6.75781 19.7945 12.2285 25.2845 19.0853 25.5704V21.3545C14.6204 21.0687 11.1 17.4603 11.1 13.0658Z" fill="#E31F26"/>
<path d="M35.8784 13.0896H34.4187C34.4065 20.9972 27.795 27.4043 19.6503 27.4043C11.5056 27.4043 4.88192 20.9972 4.88192 13.0896H0V34.5379H4.88192V25.3917C8.47589 29.2979 13.7626 31.763 19.6626 31.763C25.5626 31.763 30.8248 29.2979 34.431 25.4036V34.5379H39.3129V13.0896H35.9029H35.8784Z" fill="black"/>
</svg>
