<?xml version="1.0" encoding="utf-8"?>
<svg xmlns="http://www.w3.org/2000/svg" viewBox="0 0 1000 280" font-family="Helvetica, Arial, sans-serif">
  <!-- Marca CCB (doble-loop) -->
  <svg x="0" y="40" width="200" height="200" viewBox="0 0 285 279.65" preserveAspectRatio="xMidYMid meet">
    <style>.st0{fill:#DC0835;}</style>
    <path class="st0" d="M205.66,174.21c24.95,0,45.19,16.52,45.19,36.86c0,20.37-20.24,36.86-45.19,36.86c-19.1,0-35.39-9.68-42-23.33
		c-2.76,12.51-9.25,23.86-18.44,33.18c14.41,12.84,34.73,20.87,57.22,20.87c43.75,0,79.23-30.24,79.23-67.58
		c0-37.31-35.46-67.58-79.23-67.58c-22.49,0-42.81,8.03-57.22,20.87c9.2,9.32,15.68,20.7,18.44,33.18
		C170.25,183.89,186.56,174.21,205.66,174.21"/>
    <path class="st0" d="M78.02,247.92c-24.95,0-45.19-16.52-45.19-36.86c0-20.37,20.24-36.86,45.19-36.86c19.1,0,35.39,9.68,42,23.33
		c2.76-12.49,9.25-23.86,18.44-33.18c-14.41-12.84-34.73-20.87-57.22-20.87C37.49,143.49,2,173.76,2,211.07s35.46,67.58,79.23,67.58
		c22.49,0,42.81-8,57.22-20.87c-9.2-9.32-15.68-20.67-18.44-33.18C113.4,238.25,97.12,247.92,78.02,247.92"/>
    <path class="st0" d="M205.66,29.73c24.95,0,45.19,16.52,45.19,36.86c0,20.37-20.24,36.86-45.19,36.86c-19.1,0-35.39-9.68-42-23.33
		c-2.76,12.51-9.25,23.86-18.44,33.18c14.41,12.84,34.73,20.87,57.22,20.87c43.75,0,79.23-30.24,79.23-67.58
		C281.68,29.27,246.21-1,202.44-1c-22.49,0-42.81,8.03-57.22,20.87c9.2,9.32,15.68,20.7,18.44,33.18
		C170.25,39.4,186.56,29.73,205.66,29.73"/>
    <path class="st0" d="M78.02,103.44c-24.95,0-45.19-16.52-45.19-36.86c0-20.37,20.24-36.86,45.19-36.86c19.1,0,35.39,9.68,42,23.33
		c2.76-12.49,9.25-23.86,18.44-33.18C124.04,7.03,103.73-1,81.23-1C37.49-1,2,29.27,2,66.58s35.46,67.58,79.23,67.58
		c22.49,0,42.81-8,57.22-20.87c-9.2-9.32-15.68-20.67-18.44-33.18C113.4,93.76,97.12,103.44,78.02,103.44"/>
  </svg>
  <!-- Lockup texto -->
  <g fill="#1d1d1b">
    <text x="250" y="118" font-size="62" font-weight="700" letter-spacing="-1">Centro de Arbitraje</text>
    <text x="250" y="186" font-size="62" font-weight="700" letter-spacing="-1">y Conciliación</text>
    <text x="252" y="232" font-size="29" font-weight="400" fill="#5b5b5b" letter-spacing="0.5">Cámara de Comercio de Bogotá</text>
  </g>
</svg>