<?xml version="1.0" encoding="UTF-8" standalone="no"?>
<svg
   xmlns:dc="http://purl.org/dc/elements/1.1/"
   xmlns:cc="http://creativecommons.org/ns#"
   xmlns:rdf="http://www.w3.org/1999/02/22-rdf-syntax-ns#"
   xmlns:svg="http://www.w3.org/2000/svg"
   xmlns="http://www.w3.org/2000/svg"
   xmlns:sodipodi="http://sodipodi.sourceforge.net/DTD/sodipodi-0.dtd"
   xmlns:inkscape="http://www.inkscape.org/namespaces/inkscape"
   version="1.0"
   width="200"
   height="41"
   viewBox="0 0 160 32.8"
   preserveAspectRatio="xMidYMid meet"
   id="svg2"
   inkscape:version="0.48.4 r9939"
   sodipodi:docname="Defensoría del pueblo (Colombia) logo.svg">
  <title
     id="title3076">Defensoría del pueblo (Colombia) logo</title>
  <defs
     id="defs76" />
  <sodipodi:namedview
     pagecolor="#ffffff"
     bordercolor="#666666"
     borderopacity="1"
     objecttolerance="10"
     gridtolerance="10"
     guidetolerance="10"
     inkscape:pageopacity="0"
     inkscape:pageshadow="2"
     inkscape:window-width="1600"
     inkscape:window-height="844"
     id="namedview74"
     showgrid="false"
     inkscape:showpageshadow="false"
     inkscape:zoom="6.961112"
     inkscape:cx="95.659209"
     inkscape:cy="19.389464"
     inkscape:window-x="-4"
     inkscape:window-y="-4"
     inkscape:window-maximized="1"
     inkscape:current-layer="svg2" />
  <metadata
     id="metadata4">
Created by potrace 1.13, written by Peter Selinger 2001-2015
<rdf:RDF>
  <cc:Work
     rdf:about="">
    <dc:format>image/svg+xml</dc:format>
    <dc:type
       rdf:resource="http://purl.org/dc/dcmitype/StillImage" />
    <dc:title>Defensoría del pueblo (Colombia) logo</dc:title>
  </cc:Work>
</rdf:RDF>
</metadata>
  <g
     transform="matrix(0.00603649,0,0,-0.00620396,-4.7772363,42.704659)"
     id="g6"
     style="fill:#0044aa;stroke:none">
    <path
       d="m 4280,6764 c -14,-2 -59,-9 -100,-15 -186,-27 -440,-124 -605,-231 -365,-235 -619,-603 -713,-1032 -24,-112 -27,-139 -26,-356 0,-259 12,-345 75,-535 95,-283 284,-550 534,-752 412,-333 994,-431 1530,-257 96,32 292,128 376,184 393,267 652,692 709,1160 5,46 10,142 10,212 0,364 -105,690 -312,970 -74,100 -247,274 -341,344 -288,214 -611,316 -980,313 -73,-1 -143,-3 -157,-5 z m 389,-438 c 10,-12 0,-31 -56,-99 -136,-169 -187,-287 -181,-418 3,-67 7,-83 33,-121 90,-127 273,-188 566,-188 73,0 110,-4 117,-12 7,-9 7,-33 0,-73 -18,-112 -4,-264 40,-435 22,-85 42,-171 44,-190 3,-35 3,-35 -32,-30 -19,3 -79,5 -132,5 -89,0 -99,-2 -124,-25 -55,-51 -58,-68 -65,-415 -4,-206 -11,-334 -18,-358 -12,-36 -14,-38 -30,-23 -10,9 -24,16 -32,16 -9,0 -23,6 -33,13 -17,13 -17,16 8,65 62,123 7,171 -195,172 -143,0 -168,12 -287,139 -192,206 -312,274 -612,352 -47,12 -95,28 -108,36 -22,13 -22,16 -9,37 9,12 42,49 74,82 48,48 66,74 90,139 45,116 56,188 50,312 -4,77 -13,131 -31,188 -14,43 -24,80 -23,80 81,46 124,89 197,199 100,150 180,220 420,364 85,51 184,117 220,147 68,56 90,64 109,41 z"
       id="path10"
       inkscape:connector-curvature="0"
       style="fill:#0044aa" />
    <path
       d="m 19355,5546 -90,-22 0,-156 c 0,-99 -4,-161 -11,-168 -7,-7 -26,-7 -64,1 -72,15 -192,6 -263,-21 -77,-29 -150,-89 -198,-163 -60,-93 -74,-149 -74,-307 0,-117 3,-145 24,-205 20,-59 35,-80 90,-135 79,-78 130,-100 252,-107 71,-5 100,-2 159,16 52,16 76,19 83,12 7,-7 56,-11 119,-11 l 108,0 0,645 0,645 -22,-1 c -13,-1 -63,-11 -113,-23 z m -145,-558 c 56,-29 57,-34 59,-248 1,-228 -1,-238 -57,-262 -79,-35 -200,-10 -259,54 -28,29 -51,84 -63,150 -12,61 8,172 40,223 57,92 186,130 280,83 z"
       id="path16"
       inkscape:connector-curvature="0"
       style="fill:#0044aa" />
    <path
       d="m 20828,5547 -88,-21 0,-578 c 0,-618 0,-619 49,-663 36,-31 144,-33 199,-3 24,13 51,36 60,51 17,28 17,29 -15,55 -69,57 -68,48 -71,645 l -3,537 -22,-1 c -12,-1 -61,-11 -109,-22 z"
       id="path18"
       inkscape:connector-curvature="0"
       style="fill:#0044aa" />
    <path
       d="m 24875,5547 -90,-22 -3,-633 -2,-632 69,0 c 63,0 71,2 88,25 l 18,26 49,-22 c 60,-26 186,-36 271,-20 172,32 297,156 337,333 16,72 16,241 -1,305 -29,115 -134,230 -249,274 -79,30 -202,36 -275,15 -32,-9 -62,-14 -67,-11 -6,4 -10,85 -10,196 l 0,189 -22,-1 c -13,0 -63,-10 -113,-22 z m 352,-552 c 66,-20 98,-46 130,-108 24,-46 27,-64 28,-147 0,-111 -13,-157 -62,-211 -73,-81 -263,-94 -302,-21 -7,13 -11,101 -11,235 0,192 2,216 18,230 42,39 116,47 199,22 z"
       id="path20"
       inkscape:connector-curvature="0"
       style="fill:#0044aa" />
    <path
       d="m 25935,5546 -90,-21 0,-580 c 0,-629 -2,-609 55,-660 35,-31 143,-33 198,-3 24,13 51,35 60,50 16,27 16,28 -20,61 -67,61 -68,74 -68,659 l 0,518 -22,-1 c -13,-1 -63,-11 -113,-23 z"
       id="path22"
       inkscape:connector-curvature="0"
       style="fill:#0044aa" />
    <path
       d="m 11863,5550 c -134,-21 -242,-143 -261,-296 l -7,-59 -68,-3 -67,-3 0,-94 0,-95 53,0 c 29,0 58,-5 65,-12 9,-9 12,-103 12,-360 l 0,-348 115,0 115,0 2,358 3,357 88,3 87,3 0,94 0,95 -79,0 c -95,0 -110,11 -93,68 6,21 27,53 47,72 37,36 60,40 146,26 l 46,-8 26,73 c 36,98 35,106 -10,118 -57,15 -162,21 -220,11 z"
       id="path24"
       inkscape:connector-curvature="0"
       style="fill:#0044aa" />
    <path
       d="m 16835,5535 c -48,-77 -125,-219 -125,-231 0,-11 18,-14 83,-14 96,0 86,-7 200,142 93,121 92,123 -39,123 -96,1 -108,-1 -119,-20 z"
       id="path26"
       inkscape:connector-curvature="0"
       style="fill:#0044aa" />
    <path
       d="m 9565,5521 -120,-6 -3,-618 -2,-619 232,5 c 203,3 243,7 308,26 93,27 149,60 218,125 107,101 158,239 169,456 10,228 -30,354 -151,476 -144,145 -270,175 -651,155 z m 330,-226 c 88,-25 140,-67 180,-148 45,-93 60,-190 45,-300 -25,-181 -98,-288 -230,-338 -61,-23 -181,-26 -199,-5 -8,9 -10,125 -9,407 l 3,394 35,6 c 44,7 111,1 175,-16 z"
       id="path28"
       inkscape:connector-curvature="0"
       style="fill:#0044aa" />
    <path
       d="m 21830,5521 -65,-6 -3,-617 -2,-618 120,0 120,0 0,218 0,219 123,6 c 245,12 366,75 435,226 21,46 27,75 30,165 6,152 -6,202 -70,272 -94,102 -196,133 -453,138 -93,2 -199,0 -235,-3 z m 294,-212 c 124,-17 172,-43 207,-111 41,-81 9,-184 -71,-228 -36,-19 -63,-25 -138,-28 -64,-3 -97,-1 -107,8 -12,10 -15,44 -15,182 0,181 -3,170 47,187 1,1 36,-4 77,-10 z"
       id="path30"
       inkscape:connector-curvature="0"
       style="fill:#0044aa" />
    <path
       d="m 10830,5196 c -174,-48 -299,-182 -331,-353 -17,-87 -6,-256 19,-322 44,-112 120,-189 229,-232 51,-21 75,-23 203,-23 125,0 154,3 210,23 73,26 120,56 120,77 0,23 -69,154 -85,160 -8,3 -29,-5 -47,-19 -51,-38 -101,-50 -189,-45 -105,6 -161,39 -202,120 -16,31 -26,61 -23,67 5,8 105,11 317,11 285,0 310,1 317,18 4,9 7,69 7,132 0,96 -4,123 -22,163 -26,56 -112,150 -168,183 -84,49 -254,68 -355,40 z m 216,-210 c 43,-20 55,-32 77,-76 15,-29 24,-57 21,-61 -3,-5 -91,-9 -195,-9 -153,0 -191,3 -195,14 -6,17 26,84 53,108 57,52 158,62 239,24 z"
       id="path32"
       inkscape:connector-curvature="0"
       style="fill:#0044aa" />
    <path
       d="m 12471,5194 c -80,-21 -144,-60 -205,-124 -93,-97 -126,-190 -126,-355 0,-126 19,-204 68,-274 82,-119 179,-170 342,-179 121,-6 228,11 308,48 52,25 62,33 62,55 0,29 -65,165 -80,165 -5,0 -26,-11 -46,-25 -97,-66 -267,-59 -347,13 -27,24 -69,111 -63,128 4,12 59,14 316,14 286,0 311,1 318,18 4,9 7,67 7,127 0,98 -3,116 -27,168 -35,74 -117,160 -182,191 -100,47 -238,59 -345,30 z m 206,-199 c 48,-20 71,-41 94,-87 36,-70 41,-68 -170,-68 -224,0 -228,2 -179,76 43,63 97,94 166,94 29,0 69,-7 89,-15 z"
       id="path34"
       inkscape:connector-curvature="0"
       style="fill:#0044aa" />
    <path
       d="m 13516,5191 c -33,-11 -72,-29 -88,-41 l -27,-20 -16,30 -16,31 -85,-3 -85,-3 0,-450 0,-450 110,-3 111,-3 0,325 0,325 33,25 c 109,83 237,71 289,-27 22,-41 23,-52 26,-344 l 3,-303 115,0 114,0 0,310 c 0,402 -8,440 -113,536 -65,60 -104,74 -222,80 -71,3 -102,0 -149,-15 z"
       id="path36"
       inkscape:connector-curvature="0"
       style="fill:#0044aa" />
    <path
       d="m 14375,5196 c -77,-21 -101,-32 -144,-72 -43,-38 -71,-106 -71,-171 0,-128 64,-202 254,-293 110,-52 129,-65 143,-95 20,-43 10,-83 -27,-103 -42,-22 -142,-9 -213,27 -33,17 -64,31 -69,31 -14,0 -79,-150 -76,-174 4,-26 79,-63 157,-78 31,-6 102,-8 157,-5 126,6 205,37 263,104 57,64 77,171 50,267 -17,60 -90,131 -178,172 -193,91 -198,94 -211,123 -34,83 75,118 206,65 35,-14 69,-24 75,-22 14,5 59,122 59,154 0,26 -17,38 -88,60 -67,21 -225,27 -287,10 z"
       id="path38"
       inkscape:connector-curvature="0"
       style="fill:#0044aa" />
    <path
       d="m 15233,5195 c -208,-58 -318,-220 -317,-465 1,-177 42,-281 146,-374 65,-60 140,-87 253,-93 202,-12 347,61 423,214 39,77 52,143 52,262 0,181 -27,259 -124,357 -80,80 -143,104 -281,110 -69,3 -116,-1 -152,-11 z m 213,-206 c 114,-54 149,-314 61,-447 -60,-88 -150,-112 -245,-63 -102,52 -145,279 -78,416 57,116 148,149 262,94 z"
       id="path40"
       inkscape:connector-curvature="0"
       style="fill:#0044aa" />
    <path
       d="m 16310,5196 c -26,-6 -62,-22 -81,-34 -38,-23 -49,-21 -49,10 0,16 -10,18 -110,18 l -110,0 0,-455 0,-455 109,0 109,0 4,283 c 4,308 7,329 66,390 54,57 110,70 179,42 19,-8 43,-15 52,-15 20,0 107,170 98,192 -13,35 -176,49 -267,24 z"
       id="path42"
       inkscape:connector-curvature="0"
       style="fill:#0044aa" />
    <path
       d="m 17390,5195 c -92,-21 -120,-34 -120,-57 0,-37 33,-150 45,-155 7,-2 37,3 66,11 126,38 269,9 302,-60 10,-19 17,-38 17,-42 0,-4 -44,-7 -98,-8 -156,-2 -258,-35 -341,-109 -60,-54 -85,-122 -85,-230 1,-135 43,-210 146,-256 46,-20 69,-24 163,-23 93,0 118,4 160,23 28,12 58,29 67,38 16,15 21,13 63,-26 40,-37 50,-41 96,-41 60,0 111,22 128,54 11,20 9,28 -13,61 -39,57 -46,96 -46,265 0,188 -13,311 -41,384 -27,74 -96,136 -176,160 -79,24 -250,30 -333,11 z m 298,-501 c 17,-12 22,-25 22,-58 0,-123 -75,-195 -191,-184 -63,6 -96,29 -110,77 -14,48 -2,84 41,126 50,48 192,72 238,39 z"
       id="path44"
       inkscape:connector-curvature="0"
       style="fill:#0044aa" />
    <path
       d="m 19983,5195 c -133,-36 -239,-122 -294,-239 -61,-130 -63,-352 -4,-471 35,-73 135,-166 210,-195 53,-21 76,-24 200,-24 148,0 191,8 283,51 63,30 64,39 17,133 -29,57 -40,70 -59,70 -13,0 -29,-7 -36,-14 -42,-51 -218,-60 -305,-16 -42,22 -55,35 -82,89 -18,35 -30,67 -27,72 3,5 145,9 315,9 285,0 310,1 317,18 4,9 7,69 7,132 0,97 -3,122 -22,163 -26,56 -112,150 -168,183 -85,50 -245,67 -352,39 z m 214,-209 c 43,-20 56,-33 78,-76 14,-28 23,-55 20,-60 -4,-6 -85,-10 -196,-10 -218,0 -220,1 -173,77 56,90 165,118 271,69 z"
       id="path46"
       inkscape:connector-curvature="0"
       style="fill:#0044aa" />
    <path
       d="m 24085,5196 c -151,-37 -271,-148 -321,-296 -25,-75 -26,-281 -2,-360 35,-114 122,-206 235,-251 51,-21 75,-23 203,-23 125,0 154,3 210,23 73,26 120,56 120,77 0,24 -70,154 -86,161 -8,3 -25,-4 -37,-15 -80,-75 -281,-67 -362,13 -31,32 -69,117 -57,129 3,3 144,6 314,6 285,0 309,1 316,18 4,9 7,69 7,132 0,96 -4,123 -22,163 -26,56 -112,150 -168,183 -84,49 -241,67 -350,40 z m 211,-210 c 41,-19 55,-33 73,-68 39,-81 46,-78 -169,-78 -214,0 -216,0 -181,68 49,96 168,129 277,78 z"
       id="path48"
       inkscape:connector-curvature="0"
       style="fill:#0044aa" />
    <path
       d="m 26595,5196 c -74,-20 -103,-33 -155,-71 -98,-72 -157,-197 -167,-350 -12,-184 31,-310 138,-410 90,-83 139,-100 294,-100 103,0 129,3 184,24 79,30 166,108 204,183 75,148 75,409 0,537 -44,75 -125,146 -196,171 -78,27 -230,35 -302,16 z m 210,-209 c 30,-17 47,-37 70,-82 28,-56 30,-68 30,-170 0,-101 -2,-115 -28,-168 -38,-76 -89,-111 -161,-111 -123,0 -196,91 -204,254 -7,149 38,247 133,292 48,22 101,17 160,-15 z"
       id="path50"
       inkscape:connector-curvature="0"
       style="fill:#0044aa" />
    <path
       d="m 16650,5095 0,-95 44,0 c 24,0 48,-6 55,-13 7,-9 12,-124 13,-358 l 3,-344 113,-3 112,-3 0,456 0,455 -170,0 -170,0 0,-95 z"
       id="path52"
       inkscape:connector-curvature="0"
       style="fill:#0044aa" />
    <path
       d="m 22772,4833 c 5,-412 6,-421 87,-497 98,-91 266,-102 433,-28 49,21 58,20 58,-10 0,-16 10,-18 110,-18 l 110,0 0,455 0,455 -110,0 -110,0 0,-309 0,-309 -27,-33 c -35,-41 -116,-79 -170,-79 -67,0 -109,25 -132,81 -20,45 -21,67 -21,348 l 0,301 -116,0 -116,0 4,-357 z"
       id="path54"
       inkscape:connector-curvature="0"
       style="fill:#0044aa" />
    <path
       d="m 9447,3943 c -4,-3 -7,-24 -7,-45 l 0,-38 8846,0 8845,0 -3,43 -3,42 -8836,3 c -4860,1 -8839,-1 -8842,-5 z"
       id="path56"
       inkscape:connector-curvature="0"
       style="fill:#0044aa" />
    <path
       d="m 14545,3120 c -34,-6 -95,-27 -141,-50 -146,-71 -257,-216 -306,-399 -17,-62 -21,-105 -20,-231 0,-249 46,-381 178,-520 78,-81 153,-129 234,-148 81,-19 183,-24 250,-12 110,19 100,0 100,181 0,87 -3,159 -6,159 -3,0 -31,-7 -61,-16 -147,-43 -272,26 -334,183 -20,49 -23,76 -23,178 0,142 19,204 86,280 71,81 155,103 264,70 27,-8 55,-15 62,-15 9,0 12,39 12,160 l 0,160 -25,10 c -38,14 -202,20 -270,10 z"
       id="path58"
       inkscape:connector-curvature="0"
       style="fill:#0044aa" />
    <path
       d="m 15331,3119 c -126,-21 -235,-112 -301,-252 -65,-137 -91,-338 -71,-555 20,-217 65,-338 165,-438 75,-74 128,-101 234,-116 282,-39 480,111 542,410 36,180 34,434 -5,587 -38,148 -139,282 -247,333 -80,37 -205,49 -317,31 z m 156,-329 c 39,-24 68,-78 89,-167 21,-91 15,-364 -11,-435 -57,-159 -202,-154 -252,8 -15,48 -18,93 -18,244 0,214 13,275 69,334 39,42 74,46 123,16 z"
       id="path60"
       inkscape:connector-curvature="0"
       style="fill:#0044aa" />
    <path
       d="m 17181,3119 c -126,-21 -235,-112 -301,-252 -65,-137 -91,-338 -71,-555 20,-217 65,-338 165,-438 75,-74 128,-101 234,-116 282,-39 480,111 542,410 36,180 34,434 -5,587 -38,148 -139,282 -247,333 -80,37 -205,49 -317,31 z m 156,-329 c 39,-24 68,-78 89,-167 21,-91 15,-364 -11,-435 -57,-159 -202,-154 -252,8 -15,48 -18,93 -18,244 0,214 13,275 69,334 39,42 74,46 123,16 z"
       id="path62"
       inkscape:connector-curvature="0"
       style="fill:#0044aa" />
    <path
       d="m 16130,2430 0,-660 275,0 275,0 0,160 0,160 -103,0 c -67,0 -107,4 -115,12 -9,9 -12,134 -12,500 l 0,488 -160,0 -160,0 0,-660 z"
       id="path64"
       inkscape:connector-curvature="0"
       style="fill:#0044aa" />
    <path
       d="m 18060,3074 c 0,-21 -118,-1206 -125,-1261 l -6,-43 150,0 c 114,0 151,3 151,13 -1,41 65,797 69,797 3,0 44,-172 90,-383 46,-210 88,-392 92,-404 8,-22 14,-23 118,-23 l 109,0 10,48 c 5,26 41,208 78,404 38,197 71,358 74,358 3,0 20,-165 38,-367 19,-203 36,-385 39,-405 l 6,-38 154,0 154,0 -6,43 c -8,57 -145,1257 -145,1268 0,5 -88,9 -200,9 -199,0 -200,0 -205,-22 -15,-72 -87,-447 -99,-527 -14,-82 -26,-127 -26,-93 0,13 -92,505 -110,590 l -12,52 -199,0 c -175,0 -199,-2 -199,-16 z"
       id="path66"
       inkscape:connector-curvature="0"
       style="fill:#0044aa" />
    <path
       d="m 19470,2429 0,-661 258,5 c 208,3 268,8 312,22 115,36 191,101 236,200 24,51 28,73 28,155 0,56 -5,111 -13,134 -15,44 -81,120 -123,142 l -27,14 48,45 c 68,64 95,128 95,230 1,122 -16,168 -93,246 -106,107 -197,128 -543,129 l -178,0 0,-661 z m 441,361 c 39,-20 59,-58 59,-111 0,-41 -50,-94 -105,-109 -69,-19 -75,-10 -75,125 0,61 3,115 7,119 11,10 71,-2 114,-24 z m -2,-511 c 35,-15 52,-30 64,-55 42,-86 -5,-158 -116,-179 -61,-12 -67,0 -67,130 0,61 3,115 7,118 13,13 65,7 112,-14 z"
       id="path68"
       inkscape:connector-curvature="0"
       style="fill:#0044aa" />
    <path
       d="m 20500,2430 0,-660 160,0 160,0 0,660 0,660 -160,0 -160,0 0,-660 z"
       id="path70"
       inkscape:connector-curvature="0"
       style="fill:#0044aa" />
    <path
       d="m 21325,3078 c -6,-17 -345,-1297 -345,-1303 0,-3 72,-5 159,-5 l 160,0 11,58 c 6,31 17,80 23,107 l 12,50 147,3 c 172,3 156,13 183,-125 l 17,-93 164,0 c 103,0 164,4 164,10 0,14 -330,1291 -336,1301 -9,15 -354,11 -359,-3 z m 189,-460 c 4,-29 20,-120 37,-203 16,-82 29,-156 29,-162 0,-16 -155,-18 -165,-3 -3,5 1,37 9,72 8,35 24,117 36,183 30,171 31,176 39,170 5,-2 11,-28 15,-57 z"
       id="path72"
       inkscape:connector-curvature="0"
       style="fill:#0044aa" />
  </g>
  <path
     inkscape:connector-curvature="0"
     style="fill:#0044aa;fill-rule:evenodd"
     class="fil1"
     d="m 25.176139,23.723 c 0.902995,-0.334636 1.813101,-0.669271 2.716096,-1.003904 6.512936,-4.186321 7.458593,-7.054612 7.856763,-13.501411 -0.113771,-0.812695 0.455052,-0.737565 0.824784,-0.327798 2.979172,2.66339 1.685114,7.068248 -1.158961,12.101412 -0.263079,0.512188 0.156415,0.703416 0.533263,0.423402 2.296596,-2.588257 3.341793,-6.200931 3.832396,-10.284846 0.04978,-0.559974 0.483492,-0.46437 0.725238,0 1.85576,3.284874 1.343826,7.293641 -3.398672,12.572653 -0.682579,0.723891 -0.04978,1.038034 0.490603,0.607794 2.52412,-2.205839 3.811065,-5.28583 4.657178,-8.741423 0,-0.655597 0.533265,-0.696581 0.725238,-0.04787 0.938548,4.302436 -0.583034,8.106318 -4.557632,11.404831 -0.689691,0.478061 -0.127986,0.758057 0.291517,0.553191 1.990855,-1.222444 3.434222,-2.84098 4.522085,-5.565844 0.327068,-0.737547 0.682578,-0.580486 0.668356,0.01461 -0.177753,6.631188 -5.4393,10.2985 -12.229533,10.558005 -2.211271,-0.09575 -4.507863,-1.167806 -6.498719,-4.391202 l 0,-2.055613 c 0.263077,0 0.483494,-0.211684 0.483494,-0.464388 0,-0.259504 -0.220417,-0.471205 -0.483494,-0.471205 l 0,-1.379507 z m -2.524116,3.57169 0,0 c 0.519043,-0.696581 0.255966,-2.328773 1.55002,-3.216581 0.327069,-0.122952 0.647028,-0.239012 0.974096,-0.355109 l 0,1.379506 c -0.270187,0 -0.483492,0.2117 -0.483492,0.471205 0,0.252685 0.213305,0.464388 0.483492,0.464388 l 0,2.055612 c -0.04978,-0.07507 -0.09954,-0.157037 -0.149316,-0.23903 -0.405281,-0.64876 -1.585573,-0.375601 -2.374804,-0.559991 z m -3.277804,0.799021 0,0 0,-2.055612 c 0.263081,0 0.483497,-0.211703 0.483497,-0.464388 0,-0.259505 -0.220416,-0.471205 -0.483497,-0.471205 l 0,-1.379506 c 0.319962,0.116053 0.639923,0.232193 0.966989,0.355109 1.294054,0.887808 1.038087,2.52 1.550022,3.216581 -0.789231,0.18439 -1.969523,-0.08869 -2.374802,0.559991 -0.04978,0.08197 -0.09954,0.163936 -0.142217,0.23903 z m 0,-4.370711 0,0 0,1.379506 -0.007,0 c -0.263079,0 -0.483491,0.2117 -0.483491,0.471205 0,0.252685 0.220412,0.464388 0.483491,0.464388 l 0.007,0 0,2.055612 c -1.990852,3.2234 -4.294555,4.295598 -6.505826,4.391204 C 6.0781582,32.225393 0.81661491,28.558099 0.64596986,21.926908 0.62463246,21.332752 0.98725996,21.175689 1.3143287,21.9123 c 1.0878597,2.724864 2.5241186,4.343382 4.5220843,5.565844 0.4123903,0.204864 0.981206,-0.07507 0.2915168,-0.553193 -3.981708,-3.298464 -5.50329036,-7.102347 -4.5647434,-11.404784 0.1990844,-0.648778 0.7323482,-0.607793 0.7323482,0.04787 0.8390038,3.455593 2.1259481,6.535586 4.6571793,8.741425 0.5403728,0.430257 1.1660707,0.116053 0.4834922,-0.607794 C 2.693707,18.42267 2.1817736,14.413903 4.0375335,11.129029 c 0.2417471,-0.464388 0.6825785,-0.559992 0.73235,0 0.4834942,4.083879 1.5358021,7.696553 3.8323934,10.284846 0.3697313,0.280002 0.7892322,0.08869 0.5332656,-0.423416 C 6.2843551,15.957314 4.9903002,11.552455 7.96947,8.889047 8.3392012,8.479281 8.9080152,8.404169 8.7942524,9.216846 c 0.3981724,6.446799 1.3509376,9.315089 7.8567646,13.501409 0.910105,0.334635 1.8131,0.66927 2.723202,1.003905 z"
     id="path12-7" />
  <path
     inkscape:connector-curvature="0"
     style="fill:#ffffff;fill-rule:evenodd"
     class="fil2"
     d="m 17.458994,3.094958 -0.110162,0.115047 -0.06885,0.108652 -0.117044,0.153385 -0.09638,0.108653 0,0.153385 0.04131,0.127821 0.05507,0.121426 -0.04131,0.217305 -0.04131,0.147006 -0.05509,0.102257 -0.110162,0.140612 0,0.147006 0.08262,0.115047 0.192775,0.07669 0.172134,-0.06392 0,-0.153385 0,-0.19813 0.01386,-0.204521 0.06885,-0.0703 0.01386,-0.127822 0.05507,-0.140611 0.04131,-0.147007 -0.06885,-0.08948 0.01386,-0.06392 0.123927,-0.19813 -0.02753,-0.07669 0.06196,-0.08948 0.08262,-0.06392 0.05507,-0.147006 -0.05507,-0.07669 -0.158353,0.02556 -0.123926,0.05113 z m 0.571449,0.939519 0,0 0,-0.102257 -0.04131,-0.09588 0.02753,-0.08948 0,-0.102257 -0.01386,-0.08309 0.02753,-0.140611 0.07575,-0.07669 0.09638,-0.02556 0.06885,-0.07669 0.110146,-0.08309 0.130809,-0.07669 0.08262,0.03835 0,0.108652 0.04131,0.166172 0.01386,0.127822 -0.05507,0.09588 -0.123927,0.140611 -0.10328,0.07669 -0.09638,0.108652 -0.08262,0.07669 -0.158353,0.01282 z"
     id="path16-4" />
</svg>
